<mxfile host="app.diagrams.net" modified="2022-10-27T17:08:58.494Z" agent="5.0 (Windows NT 10.0; Win64; x64) AppleWebKit/537.36 (KHTML, like Gecko) Chrome/106.0.0.0 Safari/537.36 Edg/106.0.1370.52" etag="gpaE7Tihbt8XxSNBxkIQ" version="20.5.1" type="github">
  <diagram id="C5RBs43oDa-KdzZeNtuy" name="Page-1">
    <mxGraphModel dx="2307" dy="1269" grid="1" gridSize="10" guides="1" tooltips="1" connect="1" arrows="1" fold="1" page="1" pageScale="1" pageWidth="2339" pageHeight="3300" math="0" shadow="0">
      <root>
        <mxCell id="WIyWlLk6GJQsqaUBKTNV-0" />
        <mxCell id="WIyWlLk6GJQsqaUBKTNV-1" parent="WIyWlLk6GJQsqaUBKTNV-0" />
        <mxCell id="TKF7dKA5Q2aCV54tY_aQ-0" value="" style="group;movable=0;resizable=0;rotatable=0;deletable=0;editable=0;connectable=0;" parent="WIyWlLk6GJQsqaUBKTNV-1" vertex="1" connectable="0">
          <mxGeometry x="30" y="20" width="2290.0060000000003" height="3250.028" as="geometry" />
        </mxCell>
        <mxCell id="TKF7dKA5Q2aCV54tY_aQ-1" value="" style="rounded=0;whiteSpace=wrap;html=1;fillColor=none;movable=0;resizable=0;rotatable=0;deletable=0;editable=0;connectable=0;" parent="TKF7dKA5Q2aCV54tY_aQ-0" vertex="1">
          <mxGeometry width="2290" height="3250" as="geometry" />
        </mxCell>
        <mxCell id="TKF7dKA5Q2aCV54tY_aQ-2" value="" style="rounded=0;whiteSpace=wrap;html=1;fillColor=none;movable=1;resizable=1;rotatable=1;deletable=1;editable=1;connectable=1;" parent="TKF7dKA5Q2aCV54tY_aQ-0" vertex="1">
          <mxGeometry x="1561.1100000000001" y="3072.86" width="728.35" height="177.165" as="geometry" />
        </mxCell>
        <mxCell id="TKF7dKA5Q2aCV54tY_aQ-3" value="" style="rounded=0;whiteSpace=wrap;html=1;fillColor=none;movable=1;resizable=1;rotatable=1;deletable=1;editable=1;connectable=1;" parent="TKF7dKA5Q2aCV54tY_aQ-0" vertex="1">
          <mxGeometry x="1562.0099999999998" y="3111.16" width="27.558999999999997" height="19.685" as="geometry" />
        </mxCell>
        <mxCell id="TKF7dKA5Q2aCV54tY_aQ-4" value="" style="rounded=0;whiteSpace=wrap;html=1;fillColor=none;movable=1;resizable=1;rotatable=1;deletable=1;editable=1;connectable=1;" parent="TKF7dKA5Q2aCV54tY_aQ-0" vertex="1">
          <mxGeometry x="1562.0000000000002" y="3131.6699999999996" width="27.558999999999997" height="19.685" as="geometry" />
        </mxCell>
        <mxCell id="TKF7dKA5Q2aCV54tY_aQ-5" value="" style="rounded=0;whiteSpace=wrap;html=1;fillColor=none;movable=1;resizable=1;rotatable=1;deletable=1;editable=1;connectable=1;" parent="TKF7dKA5Q2aCV54tY_aQ-0" vertex="1">
          <mxGeometry x="1562.01" y="3091.47" width="27.558999999999997" height="19.685" as="geometry" />
        </mxCell>
        <mxCell id="TKF7dKA5Q2aCV54tY_aQ-6" value="" style="rounded=0;whiteSpace=wrap;html=1;fillColor=none;movable=1;resizable=1;rotatable=1;deletable=1;editable=1;connectable=1;" parent="TKF7dKA5Q2aCV54tY_aQ-0" vertex="1">
          <mxGeometry x="1589.5699999999997" y="3111.16" width="39.37" height="19.685" as="geometry" />
        </mxCell>
        <mxCell id="TKF7dKA5Q2aCV54tY_aQ-7" value="" style="rounded=0;whiteSpace=wrap;html=1;fillColor=none;movable=1;resizable=1;rotatable=1;deletable=1;editable=1;connectable=1;" parent="TKF7dKA5Q2aCV54tY_aQ-0" vertex="1">
          <mxGeometry x="1589.5600000000002" y="3131.6699999999996" width="39.37" height="19.685" as="geometry" />
        </mxCell>
        <mxCell id="TKF7dKA5Q2aCV54tY_aQ-8" value="" style="rounded=0;whiteSpace=wrap;html=1;fillColor=none;movable=1;resizable=1;rotatable=1;deletable=1;editable=1;connectable=1;" parent="TKF7dKA5Q2aCV54tY_aQ-0" vertex="1">
          <mxGeometry x="1589.57" y="3091.47" width="39.37" height="19.685" as="geometry" />
        </mxCell>
        <mxCell id="TKF7dKA5Q2aCV54tY_aQ-9" value="" style="rounded=0;whiteSpace=wrap;html=1;fillColor=none;movable=1;resizable=1;rotatable=1;deletable=1;editable=1;connectable=1;" parent="TKF7dKA5Q2aCV54tY_aQ-0" vertex="1">
          <mxGeometry x="1628.9399999999998" y="3111.16" width="90.551" height="19.685" as="geometry" />
        </mxCell>
        <mxCell id="TKF7dKA5Q2aCV54tY_aQ-10" value="" style="rounded=0;whiteSpace=wrap;html=1;fillColor=none;movable=1;resizable=1;rotatable=1;deletable=1;editable=1;connectable=1;" parent="TKF7dKA5Q2aCV54tY_aQ-0" vertex="1">
          <mxGeometry x="1629.2800000000002" y="3110.9399999999996" width="90.551" height="19.685" as="geometry" />
        </mxCell>
        <mxCell id="TKF7dKA5Q2aCV54tY_aQ-11" value="" style="rounded=0;whiteSpace=wrap;html=1;fillColor=none;movable=1;resizable=1;rotatable=1;deletable=1;editable=1;connectable=1;" parent="TKF7dKA5Q2aCV54tY_aQ-0" vertex="1">
          <mxGeometry x="1628.94" y="3091.47" width="90.551" height="19.685" as="geometry" />
        </mxCell>
        <mxCell id="TKF7dKA5Q2aCV54tY_aQ-12" value="" style="rounded=0;whiteSpace=wrap;html=1;fillColor=none;movable=1;resizable=1;rotatable=1;deletable=1;editable=1;connectable=1;" parent="TKF7dKA5Q2aCV54tY_aQ-0" vertex="1">
          <mxGeometry x="1719.4899999999998" y="3111.16" width="59.055" height="19.685" as="geometry" />
        </mxCell>
        <mxCell id="TKF7dKA5Q2aCV54tY_aQ-13" value="" style="rounded=0;whiteSpace=wrap;html=1;fillColor=none;movable=1;resizable=1;rotatable=1;deletable=1;editable=1;connectable=1;" parent="TKF7dKA5Q2aCV54tY_aQ-0" vertex="1">
          <mxGeometry x="1719.14" y="3131.67" width="59.055" height="19.685" as="geometry" />
        </mxCell>
        <mxCell id="TKF7dKA5Q2aCV54tY_aQ-14" value="" style="rounded=0;whiteSpace=wrap;html=1;fillColor=none;movable=1;resizable=1;rotatable=1;deletable=1;editable=1;connectable=1;" parent="TKF7dKA5Q2aCV54tY_aQ-0" vertex="1">
          <mxGeometry x="1719.49" y="3091.47" width="59.055" height="19.685" as="geometry" />
        </mxCell>
        <mxCell id="TKF7dKA5Q2aCV54tY_aQ-15" value="" style="rounded=0;whiteSpace=wrap;html=1;fillColor=none;movable=1;resizable=1;rotatable=1;deletable=1;editable=1;connectable=1;" parent="TKF7dKA5Q2aCV54tY_aQ-0" vertex="1">
          <mxGeometry x="1778.2099999999998" y="3112" width="39.37" height="19.685" as="geometry" />
        </mxCell>
        <mxCell id="TKF7dKA5Q2aCV54tY_aQ-16" value="" style="rounded=0;whiteSpace=wrap;html=1;fillColor=none;movable=1;resizable=1;rotatable=1;deletable=1;editable=1;connectable=1;" parent="TKF7dKA5Q2aCV54tY_aQ-0" vertex="1">
          <mxGeometry x="1778.2" y="3131.67" width="39.37" height="19.685" as="geometry" />
        </mxCell>
        <mxCell id="TKF7dKA5Q2aCV54tY_aQ-17" value="" style="rounded=0;whiteSpace=wrap;html=1;fillColor=none;movable=1;resizable=1;rotatable=1;deletable=1;editable=1;connectable=1;" parent="TKF7dKA5Q2aCV54tY_aQ-0" vertex="1">
          <mxGeometry x="1778.19" y="3091.47" width="39.37" height="19.685" as="geometry" />
        </mxCell>
        <mxCell id="TKF7dKA5Q2aCV54tY_aQ-18" value="" style="rounded=0;whiteSpace=wrap;html=1;fillColor=none;movable=1;resizable=1;rotatable=1;deletable=1;editable=1;connectable=1;" parent="TKF7dKA5Q2aCV54tY_aQ-0" vertex="1">
          <mxGeometry x="1817.56" y="3072.86" width="472.43" height="59.055" as="geometry" />
        </mxCell>
        <mxCell id="TKF7dKA5Q2aCV54tY_aQ-19" value="Изм." style="text;html=1;strokeColor=none;fillColor=none;align=center;verticalAlign=middle;whiteSpace=wrap;rounded=0;fontFamily=Times New Roman;fontSize=10;movable=1;resizable=1;rotatable=1;deletable=1;editable=1;connectable=1;" parent="TKF7dKA5Q2aCV54tY_aQ-0" vertex="1">
          <mxGeometry x="1561.11" y="3131.66" width="27.558999999999997" height="19.685" as="geometry" />
        </mxCell>
        <mxCell id="TKF7dKA5Q2aCV54tY_aQ-20" value="Лист" style="text;html=1;strokeColor=none;fillColor=none;align=center;verticalAlign=middle;whiteSpace=wrap;rounded=0;fontFamily=Times New Roman;fontSize=10;movable=1;resizable=1;rotatable=1;deletable=1;editable=1;connectable=1;" parent="TKF7dKA5Q2aCV54tY_aQ-0" vertex="1">
          <mxGeometry x="1589.9099999999999" y="3130.85" width="39.37" height="19.685" as="geometry" />
        </mxCell>
        <mxCell id="TKF7dKA5Q2aCV54tY_aQ-21" value="№ докум." style="text;html=1;strokeColor=none;fillColor=none;align=center;verticalAlign=middle;whiteSpace=wrap;rounded=0;fontFamily=Times New Roman;fontSize=10;movable=1;resizable=1;rotatable=1;deletable=1;editable=1;connectable=1;" parent="TKF7dKA5Q2aCV54tY_aQ-0" vertex="1">
          <mxGeometry x="1629.2799999999997" y="3131.66" width="90.551" height="19.68" as="geometry" />
        </mxCell>
        <mxCell id="TKF7dKA5Q2aCV54tY_aQ-22" value="Подп" style="text;html=1;strokeColor=none;fillColor=none;align=center;verticalAlign=middle;whiteSpace=wrap;rounded=0;fontFamily=Times New Roman;fontSize=10;movable=1;resizable=1;rotatable=1;deletable=1;editable=1;connectable=1;" parent="TKF7dKA5Q2aCV54tY_aQ-0" vertex="1">
          <mxGeometry x="1718.5900000000001" y="3131.93" width="59.055" height="19.68" as="geometry" />
        </mxCell>
        <mxCell id="TKF7dKA5Q2aCV54tY_aQ-23" value="Дата" style="text;html=1;strokeColor=none;fillColor=none;align=center;verticalAlign=middle;whiteSpace=wrap;rounded=0;fontFamily=Times New Roman;fontSize=10;movable=1;resizable=1;rotatable=1;deletable=1;editable=1;connectable=1;" parent="TKF7dKA5Q2aCV54tY_aQ-0" vertex="1">
          <mxGeometry x="1778.1899999999998" y="3131.93" width="39.37" height="19.685" as="geometry" />
        </mxCell>
        <mxCell id="TKF7dKA5Q2aCV54tY_aQ-24" value="" style="rounded=0;whiteSpace=wrap;html=1;fillColor=none;movable=1;resizable=1;rotatable=1;deletable=1;editable=1;connectable=1;" parent="TKF7dKA5Q2aCV54tY_aQ-0" vertex="1">
          <mxGeometry x="1562" y="3151.6" width="66.929" height="19.68" as="geometry" />
        </mxCell>
        <mxCell id="TKF7dKA5Q2aCV54tY_aQ-25" value="" style="rounded=0;whiteSpace=wrap;html=1;fillColor=none;movable=1;resizable=1;rotatable=1;deletable=1;editable=1;connectable=1;" parent="TKF7dKA5Q2aCV54tY_aQ-0" vertex="1">
          <mxGeometry x="1562" y="3171.28" width="66.929" height="19.68" as="geometry" />
        </mxCell>
        <mxCell id="TKF7dKA5Q2aCV54tY_aQ-26" value="" style="rounded=0;whiteSpace=wrap;html=1;fillColor=none;movable=1;resizable=1;rotatable=1;deletable=1;editable=1;connectable=1;" parent="TKF7dKA5Q2aCV54tY_aQ-0" vertex="1">
          <mxGeometry x="1562" y="3190.96" width="66.929" height="19.68" as="geometry" />
        </mxCell>
        <mxCell id="TKF7dKA5Q2aCV54tY_aQ-27" value="" style="rounded=0;whiteSpace=wrap;html=1;fillColor=none;movable=1;resizable=1;rotatable=1;deletable=1;editable=1;connectable=1;" parent="TKF7dKA5Q2aCV54tY_aQ-0" vertex="1">
          <mxGeometry x="1562" y="3210.64" width="66.929" height="19.68" as="geometry" />
        </mxCell>
        <mxCell id="TKF7dKA5Q2aCV54tY_aQ-28" value="" style="rounded=0;whiteSpace=wrap;html=1;fillColor=none;movable=1;resizable=1;rotatable=1;deletable=1;editable=1;connectable=1;" parent="TKF7dKA5Q2aCV54tY_aQ-0" vertex="1">
          <mxGeometry x="1562" y="3230.32" width="66.929" height="19.68" as="geometry" />
        </mxCell>
        <mxCell id="TKF7dKA5Q2aCV54tY_aQ-29" value="" style="rounded=0;whiteSpace=wrap;html=1;fillColor=none;movable=1;resizable=1;rotatable=1;deletable=1;editable=1;connectable=1;" parent="TKF7dKA5Q2aCV54tY_aQ-0" vertex="1">
          <mxGeometry x="1628.6" y="3131.6699999999996" width="90.551" height="19.68" as="geometry" />
        </mxCell>
        <mxCell id="TKF7dKA5Q2aCV54tY_aQ-30" value="" style="rounded=0;whiteSpace=wrap;html=1;fillColor=none;movable=1;resizable=1;rotatable=1;deletable=1;editable=1;connectable=1;" parent="TKF7dKA5Q2aCV54tY_aQ-0" vertex="1">
          <mxGeometry x="1628.59" y="3190.96" width="90.551" height="19.68" as="geometry" />
        </mxCell>
        <mxCell id="TKF7dKA5Q2aCV54tY_aQ-31" value="" style="rounded=0;whiteSpace=wrap;html=1;fillColor=none;movable=1;resizable=1;rotatable=1;deletable=1;editable=1;connectable=1;" parent="TKF7dKA5Q2aCV54tY_aQ-0" vertex="1">
          <mxGeometry x="1628.59" y="3210.64" width="90.551" height="19.68" as="geometry" />
        </mxCell>
        <mxCell id="TKF7dKA5Q2aCV54tY_aQ-32" value="" style="rounded=0;whiteSpace=wrap;html=1;fillColor=none;movable=1;resizable=1;rotatable=1;deletable=1;editable=1;connectable=1;" parent="TKF7dKA5Q2aCV54tY_aQ-0" vertex="1">
          <mxGeometry x="1628.59" y="3230.32" width="90.551" height="19.68" as="geometry" />
        </mxCell>
        <mxCell id="TKF7dKA5Q2aCV54tY_aQ-33" value="" style="rounded=0;whiteSpace=wrap;html=1;fillColor=none;movable=1;resizable=1;rotatable=1;deletable=1;editable=1;connectable=1;" parent="TKF7dKA5Q2aCV54tY_aQ-0" vertex="1">
          <mxGeometry x="1719.1499999999999" y="3151.61" width="59.055" height="19.68" as="geometry" />
        </mxCell>
        <mxCell id="TKF7dKA5Q2aCV54tY_aQ-34" value="" style="rounded=0;whiteSpace=wrap;html=1;fillColor=none;movable=1;resizable=1;rotatable=1;deletable=1;editable=1;connectable=1;" parent="TKF7dKA5Q2aCV54tY_aQ-0" vertex="1">
          <mxGeometry x="1719.1399999999999" y="3171.2799999999997" width="59.055" height="19.68" as="geometry" />
        </mxCell>
        <mxCell id="TKF7dKA5Q2aCV54tY_aQ-35" value="" style="rounded=0;whiteSpace=wrap;html=1;fillColor=none;movable=1;resizable=1;rotatable=1;deletable=1;editable=1;connectable=1;" parent="TKF7dKA5Q2aCV54tY_aQ-0" vertex="1">
          <mxGeometry x="1719.1399999999999" y="3190.96" width="59.055" height="19.68" as="geometry" />
        </mxCell>
        <mxCell id="TKF7dKA5Q2aCV54tY_aQ-36" value="" style="rounded=0;whiteSpace=wrap;html=1;fillColor=none;movable=1;resizable=1;rotatable=1;deletable=1;editable=1;connectable=1;" parent="TKF7dKA5Q2aCV54tY_aQ-0" vertex="1">
          <mxGeometry x="1719.1399999999999" y="3210.64" width="59.055" height="19.68" as="geometry" />
        </mxCell>
        <mxCell id="TKF7dKA5Q2aCV54tY_aQ-37" value="" style="rounded=0;whiteSpace=wrap;html=1;fillColor=none;movable=1;resizable=1;rotatable=1;deletable=1;editable=1;connectable=1;" parent="TKF7dKA5Q2aCV54tY_aQ-0" vertex="1">
          <mxGeometry x="1719.1399999999999" y="3230.32" width="59.055" height="19.68" as="geometry" />
        </mxCell>
        <mxCell id="TKF7dKA5Q2aCV54tY_aQ-38" value="" style="rounded=0;whiteSpace=wrap;html=1;fillColor=none;movable=1;resizable=1;rotatable=1;deletable=1;editable=1;connectable=1;" parent="TKF7dKA5Q2aCV54tY_aQ-0" vertex="1">
          <mxGeometry x="1778.1899999999998" y="3151.35" width="39.37" height="19.68" as="geometry" />
        </mxCell>
        <mxCell id="TKF7dKA5Q2aCV54tY_aQ-39" value="" style="rounded=0;whiteSpace=wrap;html=1;fillColor=none;movable=1;resizable=1;rotatable=1;deletable=1;editable=1;connectable=1;" parent="TKF7dKA5Q2aCV54tY_aQ-0" vertex="1">
          <mxGeometry x="1778.2" y="3171.2799999999997" width="39.37" height="19.68" as="geometry" />
        </mxCell>
        <mxCell id="TKF7dKA5Q2aCV54tY_aQ-40" value="" style="rounded=0;whiteSpace=wrap;html=1;fillColor=none;movable=1;resizable=1;rotatable=1;deletable=1;editable=1;connectable=1;" parent="TKF7dKA5Q2aCV54tY_aQ-0" vertex="1">
          <mxGeometry x="1778.2" y="3190.96" width="39.37" height="19.68" as="geometry" />
        </mxCell>
        <mxCell id="TKF7dKA5Q2aCV54tY_aQ-41" value="" style="rounded=0;whiteSpace=wrap;html=1;fillColor=none;movable=1;resizable=1;rotatable=1;deletable=1;editable=1;connectable=1;" parent="TKF7dKA5Q2aCV54tY_aQ-0" vertex="1">
          <mxGeometry x="1778.2" y="3210.64" width="39.37" height="19.68" as="geometry" />
        </mxCell>
        <mxCell id="TKF7dKA5Q2aCV54tY_aQ-42" value="" style="rounded=0;whiteSpace=wrap;html=1;fillColor=none;movable=1;resizable=1;rotatable=1;deletable=1;editable=1;connectable=1;" parent="TKF7dKA5Q2aCV54tY_aQ-0" vertex="1">
          <mxGeometry x="1778.2" y="3230.32" width="39.37" height="19.68" as="geometry" />
        </mxCell>
        <mxCell id="TKF7dKA5Q2aCV54tY_aQ-43" value="" style="rounded=0;whiteSpace=wrap;html=1;fontFamily=Times New Roman;fontSize=10;fillColor=none;movable=1;resizable=1;rotatable=1;deletable=1;editable=1;connectable=1;" parent="TKF7dKA5Q2aCV54tY_aQ-0" vertex="1">
          <mxGeometry x="2218.59" y="3131.68" width="70.866" height="19.685" as="geometry" />
        </mxCell>
        <mxCell id="TKF7dKA5Q2aCV54tY_aQ-44" value="" style="rounded=0;whiteSpace=wrap;html=1;fontFamily=Times New Roman;fontSize=10;fillColor=none;movable=1;resizable=1;rotatable=1;deletable=1;editable=1;connectable=1;" parent="TKF7dKA5Q2aCV54tY_aQ-0" vertex="1">
          <mxGeometry x="2219.1400000000003" y="3150.53" width="70.866" height="39.37" as="geometry" />
        </mxCell>
        <mxCell id="TKF7dKA5Q2aCV54tY_aQ-45" value="" style="rounded=0;whiteSpace=wrap;html=1;fontFamily=Times New Roman;fontSize=10;fillColor=none;movable=1;resizable=1;rotatable=1;deletable=1;editable=1;connectable=1;" parent="TKF7dKA5Q2aCV54tY_aQ-0" vertex="1">
          <mxGeometry x="2152.23" y="3131.68" width="66.929" height="19.685" as="geometry" />
        </mxCell>
        <mxCell id="TKF7dKA5Q2aCV54tY_aQ-46" value="" style="rounded=0;whiteSpace=wrap;html=1;fontFamily=Times New Roman;fontSize=10;fillColor=none;movable=1;resizable=1;rotatable=1;deletable=1;editable=1;connectable=1;" parent="TKF7dKA5Q2aCV54tY_aQ-0" vertex="1">
          <mxGeometry x="2152.21" y="3150.53" width="66.929" height="39.37" as="geometry" />
        </mxCell>
        <mxCell id="TKF7dKA5Q2aCV54tY_aQ-47" value="" style="rounded=0;whiteSpace=wrap;html=1;fontFamily=Times New Roman;fontSize=10;fillColor=none;movable=1;resizable=1;rotatable=1;deletable=1;editable=1;connectable=1;" parent="TKF7dKA5Q2aCV54tY_aQ-0" vertex="1">
          <mxGeometry x="2093.1800000000003" y="3131.92" width="59.055" height="19.685" as="geometry" />
        </mxCell>
        <mxCell id="TKF7dKA5Q2aCV54tY_aQ-48" value="" style="rounded=0;whiteSpace=wrap;html=1;fontFamily=Times New Roman;fontSize=10;fillColor=none;movable=1;resizable=1;rotatable=1;deletable=1;editable=1;connectable=1;" parent="TKF7dKA5Q2aCV54tY_aQ-0" vertex="1">
          <mxGeometry x="2093.1600000000003" y="3150.5299999999997" width="59.05" height="39.37" as="geometry" />
        </mxCell>
        <mxCell id="TKF7dKA5Q2aCV54tY_aQ-49" value="" style="rounded=0;whiteSpace=wrap;html=1;fontFamily=Times New Roman;fontSize=10;fillColor=none;movable=1;resizable=1;rotatable=1;deletable=1;editable=1;connectable=1;" parent="TKF7dKA5Q2aCV54tY_aQ-0" vertex="1">
          <mxGeometry x="2093.14" y="3190.9700000000003" width="196.85" height="59.055" as="geometry" />
        </mxCell>
        <mxCell id="TKF7dKA5Q2aCV54tY_aQ-50" value="Разраб" style="text;html=1;strokeColor=none;fillColor=none;align=center;verticalAlign=middle;whiteSpace=wrap;rounded=0;fontFamily=Times New Roman;fontSize=10;movable=1;resizable=1;rotatable=1;deletable=1;editable=1;connectable=1;" parent="TKF7dKA5Q2aCV54tY_aQ-0" vertex="1">
          <mxGeometry x="1562.35" y="3149.47" width="66.929" height="19.68" as="geometry" />
        </mxCell>
        <mxCell id="TKF7dKA5Q2aCV54tY_aQ-51" value="Пров" style="text;html=1;strokeColor=none;fillColor=none;align=center;verticalAlign=middle;whiteSpace=wrap;rounded=0;fontFamily=Times New Roman;fontSize=10;movable=1;resizable=1;rotatable=1;deletable=1;editable=1;connectable=1;" parent="TKF7dKA5Q2aCV54tY_aQ-0" vertex="1">
          <mxGeometry x="1561.1069999999997" y="3170.217" width="66.929" height="19.68" as="geometry" />
        </mxCell>
        <mxCell id="TKF7dKA5Q2aCV54tY_aQ-52" value="Н. Контр." style="text;html=1;strokeColor=none;fillColor=none;align=center;verticalAlign=middle;whiteSpace=wrap;rounded=0;fontFamily=Times New Roman;fontSize=10;movable=1;resizable=1;rotatable=1;deletable=1;editable=1;connectable=1;" parent="TKF7dKA5Q2aCV54tY_aQ-0" vertex="1">
          <mxGeometry x="1562.001" y="3210.641" width="66.929" height="19.68" as="geometry" />
        </mxCell>
        <mxCell id="TKF7dKA5Q2aCV54tY_aQ-53" value="Утв." style="text;html=1;strokeColor=none;fillColor=none;align=center;verticalAlign=middle;whiteSpace=wrap;rounded=0;fontFamily=Times New Roman;fontSize=10;movable=1;resizable=1;rotatable=1;deletable=1;editable=1;connectable=1;" parent="TKF7dKA5Q2aCV54tY_aQ-0" vertex="1">
          <mxGeometry x="1562.008" y="3230.348" width="66.929" height="19.68" as="geometry" />
        </mxCell>
        <mxCell id="TKF7dKA5Q2aCV54tY_aQ-54" value="Лит." style="text;html=1;strokeColor=none;fillColor=none;align=center;verticalAlign=middle;whiteSpace=wrap;rounded=0;fontFamily=Times New Roman;fontSize=10;movable=1;resizable=1;rotatable=1;deletable=1;editable=1;connectable=1;" parent="TKF7dKA5Q2aCV54tY_aQ-0" vertex="1">
          <mxGeometry x="2093.1800000000003" y="3131.93" width="59.055" height="19.68" as="geometry" />
        </mxCell>
        <mxCell id="TKF7dKA5Q2aCV54tY_aQ-55" value="Лист" style="text;html=1;strokeColor=none;fillColor=none;align=center;verticalAlign=middle;whiteSpace=wrap;rounded=0;fontFamily=Times New Roman;fontSize=10;movable=1;resizable=1;rotatable=1;deletable=1;editable=1;connectable=1;" parent="TKF7dKA5Q2aCV54tY_aQ-0" vertex="1">
          <mxGeometry x="2152.2320000000004" y="3131.682" width="66.929" height="19.68" as="geometry" />
        </mxCell>
        <mxCell id="TKF7dKA5Q2aCV54tY_aQ-56" value="Листов" style="text;html=1;strokeColor=none;fillColor=none;align=center;verticalAlign=middle;whiteSpace=wrap;rounded=0;fontFamily=Times New Roman;fontSize=10;movable=1;resizable=1;rotatable=1;deletable=1;editable=1;connectable=1;" parent="TKF7dKA5Q2aCV54tY_aQ-0" vertex="1">
          <mxGeometry x="2219.16" y="3131.68" width="69.75" height="19.68" as="geometry" />
        </mxCell>
        <mxCell id="TKF7dKA5Q2aCV54tY_aQ-57" value="" style="rounded=0;whiteSpace=wrap;html=1;fillColor=none;movable=1;resizable=1;rotatable=1;deletable=1;editable=1;connectable=1;" parent="TKF7dKA5Q2aCV54tY_aQ-0" vertex="1">
          <mxGeometry x="1628.0400000000002" y="3151.6099999999997" width="90.551" height="19.685" as="geometry" />
        </mxCell>
        <mxCell id="TKF7dKA5Q2aCV54tY_aQ-58" value="Вершинин В. В." style="text;html=1;strokeColor=none;fillColor=none;align=center;verticalAlign=middle;whiteSpace=wrap;rounded=0;fontFamily=Times New Roman;fontSize=10;movable=1;resizable=1;rotatable=1;deletable=1;editable=1;connectable=1;" parent="TKF7dKA5Q2aCV54tY_aQ-0" vertex="1">
          <mxGeometry x="1629.28" y="3171.03" width="88.74" height="19.68" as="geometry" />
        </mxCell>
        <mxCell id="TKF7dKA5Q2aCV54tY_aQ-59" value="Фамилия И. О." style="text;html=1;strokeColor=none;fillColor=none;align=center;verticalAlign=middle;whiteSpace=wrap;rounded=0;fontFamily=Times New Roman;fontSize=10;movable=1;resizable=1;rotatable=1;deletable=1;editable=1;connectable=1;" parent="TKF7dKA5Q2aCV54tY_aQ-0" vertex="1">
          <mxGeometry x="1628.597" y="3151.337" width="88.74" height="19.68" as="geometry" />
        </mxCell>
        <mxCell id="TKF7dKA5Q2aCV54tY_aQ-60" value="&lt;span style=&quot;font-size: 14.0pt ; line-height: 150% ; font-family: &amp;quot;times new roman&amp;quot; , serif&quot;&gt;ВлГУ.09.03.02.&lt;/span&gt;" style="text;html=1;strokeColor=none;fillColor=none;align=center;verticalAlign=middle;whiteSpace=wrap;rounded=0;fontFamily=Times New Roman;fontSize=10;movable=1;resizable=1;rotatable=1;deletable=1;editable=1;connectable=1;" parent="TKF7dKA5Q2aCV54tY_aQ-0" vertex="1">
          <mxGeometry x="1817.56" y="3072.86" width="471.33" height="56.74" as="geometry" />
        </mxCell>
        <mxCell id="TKF7dKA5Q2aCV54tY_aQ-61" value="&lt;font style=&quot;font-size: 17px;&quot;&gt;ИСТ-120&lt;/font&gt;" style="text;html=1;strokeColor=none;fillColor=none;align=center;verticalAlign=middle;whiteSpace=wrap;rounded=0;fontFamily=Times New Roman;fontSize=10;movable=1;resizable=1;rotatable=1;deletable=1;editable=1;connectable=1;" parent="TKF7dKA5Q2aCV54tY_aQ-0" vertex="1">
          <mxGeometry x="2093.18" y="3189.9" width="195.71" height="57.81" as="geometry" />
        </mxCell>
        <mxCell id="TKF7dKA5Q2aCV54tY_aQ-62" value="&lt;font style=&quot;font-size: 17px&quot;&gt;Диаграмма классов&lt;br&gt;&lt;/font&gt;" style="text;html=1;strokeColor=none;fillColor=none;align=center;verticalAlign=middle;whiteSpace=wrap;rounded=0;fontFamily=Times New Roman;fontSize=10;movable=1;resizable=1;rotatable=1;deletable=1;editable=1;connectable=1;" parent="TKF7dKA5Q2aCV54tY_aQ-0" vertex="1">
          <mxGeometry x="1817.58" y="3131.93" width="274.46" height="116.09" as="geometry" />
        </mxCell>
        <mxCell id="j6F3KSqjQ4Auw0hY_51Z-14" value="Admin" style="swimlane;fontStyle=1;align=center;verticalAlign=top;childLayout=stackLayout;horizontal=1;startSize=26;horizontalStack=0;resizeParent=1;resizeParentMax=0;resizeLast=0;collapsible=1;marginBottom=0;" parent="TKF7dKA5Q2aCV54tY_aQ-0" vertex="1">
          <mxGeometry x="410" y="1200" width="160" height="60" as="geometry">
            <mxRectangle x="402" y="120" width="100" height="30" as="alternateBounds" />
          </mxGeometry>
        </mxCell>
        <mxCell id="j6F3KSqjQ4Auw0hY_51Z-15" value="- maps: List&lt;Map&gt;" style="text;strokeColor=none;fillColor=none;align=left;verticalAlign=top;spacingLeft=4;spacingRight=4;overflow=hidden;rotatable=0;points=[[0,0.5],[1,0.5]];portConstraint=eastwest;" parent="j6F3KSqjQ4Auw0hY_51Z-14" vertex="1">
          <mxGeometry y="26" width="160" height="26" as="geometry" />
        </mxCell>
        <mxCell id="j6F3KSqjQ4Auw0hY_51Z-16" value="" style="line;strokeWidth=1;fillColor=none;align=left;verticalAlign=middle;spacingTop=-1;spacingLeft=3;spacingRight=3;rotatable=0;labelPosition=right;points=[];portConstraint=eastwest;strokeColor=inherit;" parent="j6F3KSqjQ4Auw0hY_51Z-14" vertex="1">
          <mxGeometry y="52" width="160" height="8" as="geometry" />
        </mxCell>
        <mxCell id="j6F3KSqjQ4Auw0hY_51Z-4" value="User" style="swimlane;fontStyle=1;align=center;verticalAlign=top;childLayout=stackLayout;horizontal=1;startSize=26;horizontalStack=0;resizeParent=1;resizeParentMax=0;resizeLast=0;collapsible=1;marginBottom=0;" parent="TKF7dKA5Q2aCV54tY_aQ-0" vertex="1">
          <mxGeometry x="410" y="900" width="160" height="236" as="geometry">
            <mxRectangle x="50" y="130" width="70" height="30" as="alternateBounds" />
          </mxGeometry>
        </mxCell>
        <mxCell id="Smy_J0IMH1DHcD7krqMJ-7" value="- id: string" style="text;strokeColor=none;fillColor=none;align=left;verticalAlign=top;spacingLeft=4;spacingRight=4;overflow=hidden;rotatable=0;points=[[0,0.5],[1,0.5]];portConstraint=eastwest;" vertex="1" parent="j6F3KSqjQ4Auw0hY_51Z-4">
          <mxGeometry y="26" width="160" height="26" as="geometry" />
        </mxCell>
        <mxCell id="F6LW-deDjuDnoKEExlji-11" value="- firstName: string" style="text;strokeColor=none;fillColor=none;align=left;verticalAlign=middle;spacingLeft=4;spacingRight=4;overflow=hidden;points=[[0,0.5],[1,0.5]];portConstraint=eastwest;rotatable=0;" parent="j6F3KSqjQ4Auw0hY_51Z-4" vertex="1">
          <mxGeometry y="52" width="160" height="30" as="geometry" />
        </mxCell>
        <mxCell id="F6LW-deDjuDnoKEExlji-305" value="- lastName: string" style="text;strokeColor=none;fillColor=none;align=left;verticalAlign=middle;spacingLeft=4;spacingRight=4;overflow=hidden;points=[[0,0.5],[1,0.5]];portConstraint=eastwest;rotatable=0;" parent="j6F3KSqjQ4Auw0hY_51Z-4" vertex="1">
          <mxGeometry y="82" width="160" height="30" as="geometry" />
        </mxCell>
        <mxCell id="F6LW-deDjuDnoKEExlji-306" value="- patronymic: string" style="text;strokeColor=none;fillColor=none;align=left;verticalAlign=middle;spacingLeft=4;spacingRight=4;overflow=hidden;points=[[0,0.5],[1,0.5]];portConstraint=eastwest;rotatable=0;" parent="j6F3KSqjQ4Auw0hY_51Z-4" vertex="1">
          <mxGeometry y="112" width="160" height="30" as="geometry" />
        </mxCell>
        <mxCell id="F6LW-deDjuDnoKEExlji-307" value="- role: Role" style="text;strokeColor=none;fillColor=none;align=left;verticalAlign=middle;spacingLeft=4;spacingRight=4;overflow=hidden;points=[[0,0.5],[1,0.5]];portConstraint=eastwest;rotatable=0;" parent="j6F3KSqjQ4Auw0hY_51Z-4" vertex="1">
          <mxGeometry y="142" width="160" height="30" as="geometry" />
        </mxCell>
        <mxCell id="F6LW-deDjuDnoKEExlji-308" value="- email: string" style="text;strokeColor=none;fillColor=none;align=left;verticalAlign=middle;spacingLeft=4;spacingRight=4;overflow=hidden;points=[[0,0.5],[1,0.5]];portConstraint=eastwest;rotatable=0;" parent="j6F3KSqjQ4Auw0hY_51Z-4" vertex="1">
          <mxGeometry y="172" width="160" height="30" as="geometry" />
        </mxCell>
        <mxCell id="j6F3KSqjQ4Auw0hY_51Z-9" value="- bots: List&lt;Bot&gt;" style="text;strokeColor=none;fillColor=none;align=left;verticalAlign=top;spacingLeft=4;spacingRight=4;overflow=hidden;rotatable=0;points=[[0,0.5],[1,0.5]];portConstraint=eastwest;" parent="j6F3KSqjQ4Auw0hY_51Z-4" vertex="1">
          <mxGeometry y="202" width="160" height="26" as="geometry" />
        </mxCell>
        <mxCell id="j6F3KSqjQ4Auw0hY_51Z-6" value="" style="line;strokeWidth=1;fillColor=none;align=left;verticalAlign=middle;spacingTop=-1;spacingLeft=3;spacingRight=3;rotatable=0;labelPosition=right;points=[];portConstraint=eastwest;strokeColor=inherit;" parent="j6F3KSqjQ4Auw0hY_51Z-4" vertex="1">
          <mxGeometry y="228" width="160" height="8" as="geometry" />
        </mxCell>
        <mxCell id="j6F3KSqjQ4Auw0hY_51Z-34" value="" style="endArrow=block;endFill=0;endSize=12;html=1;rounded=0;exitX=0.5;exitY=0;exitDx=0;exitDy=0;entryX=0.5;entryY=1;entryDx=0;entryDy=0;" parent="TKF7dKA5Q2aCV54tY_aQ-0" source="j6F3KSqjQ4Auw0hY_51Z-14" target="j6F3KSqjQ4Auw0hY_51Z-4" edge="1">
          <mxGeometry width="160" relative="1" as="geometry">
            <mxPoint x="400" y="1080" as="sourcePoint" />
            <mxPoint x="310" y="980" as="targetPoint" />
          </mxGeometry>
        </mxCell>
        <mxCell id="F6LW-deDjuDnoKEExlji-313" value="Role" style="swimlane;fontStyle=1;align=center;verticalAlign=top;childLayout=stackLayout;horizontal=1;startSize=26;horizontalStack=0;resizeParent=1;resizeParentMax=0;resizeLast=0;collapsible=1;marginBottom=0;" parent="TKF7dKA5Q2aCV54tY_aQ-0" vertex="1">
          <mxGeometry x="110" y="1018" width="160" height="86" as="geometry">
            <mxRectangle x="50" y="300" width="60" height="30" as="alternateBounds" />
          </mxGeometry>
        </mxCell>
        <mxCell id="F6LW-deDjuDnoKEExlji-314" value="- name: string" style="text;strokeColor=none;fillColor=none;align=left;verticalAlign=top;spacingLeft=4;spacingRight=4;overflow=hidden;rotatable=0;points=[[0,0.5],[1,0.5]];portConstraint=eastwest;" parent="F6LW-deDjuDnoKEExlji-313" vertex="1">
          <mxGeometry y="26" width="160" height="26" as="geometry" />
        </mxCell>
        <mxCell id="F6LW-deDjuDnoKEExlji-315" value="- description: string" style="text;strokeColor=none;fillColor=none;align=left;verticalAlign=top;spacingLeft=4;spacingRight=4;overflow=hidden;rotatable=0;points=[[0,0.5],[1,0.5]];portConstraint=eastwest;" parent="F6LW-deDjuDnoKEExlji-313" vertex="1">
          <mxGeometry y="52" width="160" height="26" as="geometry" />
        </mxCell>
        <mxCell id="F6LW-deDjuDnoKEExlji-316" value="" style="line;strokeWidth=1;fillColor=none;align=left;verticalAlign=middle;spacingTop=-1;spacingLeft=3;spacingRight=3;rotatable=0;labelPosition=right;points=[];portConstraint=eastwest;strokeColor=inherit;" parent="F6LW-deDjuDnoKEExlji-313" vertex="1">
          <mxGeometry y="78" width="160" height="8" as="geometry" />
        </mxCell>
        <mxCell id="F6LW-deDjuDnoKEExlji-318" value="" style="endArrow=diamondThin;endFill=0;endSize=24;html=1;rounded=0;entryX=0;entryY=0.5;entryDx=0;entryDy=0;exitX=1;exitY=0.5;exitDx=0;exitDy=0;" parent="TKF7dKA5Q2aCV54tY_aQ-0" source="F6LW-deDjuDnoKEExlji-314" target="F6LW-deDjuDnoKEExlji-307" edge="1">
          <mxGeometry width="160" relative="1" as="geometry">
            <mxPoint x="578.0299999999997" y="1371.685" as="sourcePoint" />
            <mxPoint x="81.9699999999998" y="1269.9950000000003" as="targetPoint" />
            <Array as="points" />
          </mxGeometry>
        </mxCell>
        <mxCell id="gViToysi0TNXoN4Ytwfg-5" value="&lt;p style=&quot;margin:0px;margin-top:4px;text-align:center;&quot;&gt;&lt;i&gt;&amp;lt;&amp;lt;Enumeration&amp;gt;&amp;gt;&lt;/i&gt;&lt;br&gt;&lt;b&gt;MapType&lt;/b&gt;&lt;/p&gt;&lt;p style=&quot;margin:0px;margin-left:4px;&quot;&gt;Desert&lt;/p&gt;&lt;p style=&quot;margin:0px;margin-left:4px;&quot;&gt;Water&lt;/p&gt;&lt;p style=&quot;margin:0px;margin-left:4px;&quot;&gt;Tropic&lt;/p&gt;&lt;p style=&quot;margin:0px;margin-left:4px;&quot;&gt;Temperate&lt;br&gt;&lt;/p&gt;&lt;p style=&quot;margin:0px;margin-left:4px;&quot;&gt;Taiga&lt;/p&gt;&lt;p style=&quot;margin:0px;margin-left:4px;&quot;&gt;Tundra&lt;/p&gt;" style="verticalAlign=top;align=left;overflow=fill;fontSize=12;fontFamily=Helvetica;html=1;" parent="TKF7dKA5Q2aCV54tY_aQ-0" vertex="1">
          <mxGeometry x="1360" y="910" width="170" height="130" as="geometry" />
        </mxCell>
        <mxCell id="j6F3KSqjQ4Auw0hY_51Z-22" value="Map" style="swimlane;fontStyle=1;align=center;verticalAlign=top;childLayout=stackLayout;horizontal=1;startSize=26;horizontalStack=0;resizeParent=1;resizeParentMax=0;resizeLast=0;collapsible=1;marginBottom=0;" parent="TKF7dKA5Q2aCV54tY_aQ-0" vertex="1">
          <mxGeometry x="930" y="1034" width="160" height="86" as="geometry">
            <mxRectangle x="50" y="300" width="60" height="30" as="alternateBounds" />
          </mxGeometry>
        </mxCell>
        <mxCell id="j6F3KSqjQ4Auw0hY_51Z-23" value="- habitat: MapType[][]" style="text;strokeColor=none;fillColor=none;align=left;verticalAlign=top;spacingLeft=4;spacingRight=4;overflow=hidden;rotatable=0;points=[[0,0.5],[1,0.5]];portConstraint=eastwest;" parent="j6F3KSqjQ4Auw0hY_51Z-22" vertex="1">
          <mxGeometry y="26" width="160" height="26" as="geometry" />
        </mxCell>
        <mxCell id="gViToysi0TNXoN4Ytwfg-6" value="- bots: Bot[][]" style="text;strokeColor=none;fillColor=none;align=left;verticalAlign=top;spacingLeft=4;spacingRight=4;overflow=hidden;rotatable=0;points=[[0,0.5],[1,0.5]];portConstraint=eastwest;" parent="j6F3KSqjQ4Auw0hY_51Z-22" vertex="1">
          <mxGeometry y="52" width="160" height="26" as="geometry" />
        </mxCell>
        <mxCell id="j6F3KSqjQ4Auw0hY_51Z-24" value="" style="line;strokeWidth=1;fillColor=none;align=left;verticalAlign=middle;spacingTop=-1;spacingLeft=3;spacingRight=3;rotatable=0;labelPosition=right;points=[];portConstraint=eastwest;strokeColor=inherit;" parent="j6F3KSqjQ4Auw0hY_51Z-22" vertex="1">
          <mxGeometry y="78" width="160" height="8" as="geometry" />
        </mxCell>
        <mxCell id="w1dvZM31qv4syowJ6gxu-0" value="" style="endArrow=none;html=1;endSize=12;startArrow=diamondThin;startSize=14;startFill=1;edgeStyle=orthogonalEdgeStyle;align=left;verticalAlign=bottom;rounded=0;entryX=0;entryY=0.5;entryDx=0;entryDy=0;exitX=1;exitY=0.5;exitDx=0;exitDy=0;endFill=0;" parent="TKF7dKA5Q2aCV54tY_aQ-0" source="gViToysi0TNXoN4Ytwfg-6" target="gViToysi0TNXoN4Ytwfg-5" edge="1">
          <mxGeometry x="-1" y="3" relative="1" as="geometry">
            <mxPoint x="565" y="960" as="sourcePoint" />
            <mxPoint x="725" y="960" as="targetPoint" />
          </mxGeometry>
        </mxCell>
        <mxCell id="w1dvZM31qv4syowJ6gxu-5" value="" style="endArrow=none;html=1;endSize=12;startArrow=diamondThin;startSize=14;startFill=0;edgeStyle=orthogonalEdgeStyle;align=left;verticalAlign=bottom;rounded=0;endFill=0;exitX=1;exitY=0.5;exitDx=0;exitDy=0;entryX=0;entryY=0.5;entryDx=0;entryDy=0;" parent="TKF7dKA5Q2aCV54tY_aQ-0" source="j6F3KSqjQ4Auw0hY_51Z-14" target="gViToysi0TNXoN4Ytwfg-6" edge="1">
          <mxGeometry x="-1" y="3" relative="1" as="geometry">
            <mxPoint x="485" y="1050" as="sourcePoint" />
            <mxPoint x="645" y="1050" as="targetPoint" />
          </mxGeometry>
        </mxCell>
        <mxCell id="27ml4S2k1uJv04ql8wn_-3" value="Layer" style="swimlane;fontStyle=1;align=center;verticalAlign=top;childLayout=stackLayout;horizontal=1;startSize=26;horizontalStack=0;resizeParent=1;resizeParentMax=0;resizeLast=0;collapsible=1;marginBottom=0;" parent="TKF7dKA5Q2aCV54tY_aQ-0" vertex="1">
          <mxGeometry x="1160" y="256" width="160" height="138" as="geometry" />
        </mxCell>
        <mxCell id="27ml4S2k1uJv04ql8wn_-7" value="+ Size: int" style="text;strokeColor=none;fillColor=none;align=left;verticalAlign=top;spacingLeft=4;spacingRight=4;overflow=hidden;rotatable=0;points=[[0,0.5],[1,0.5]];portConstraint=eastwest;" parent="27ml4S2k1uJv04ql8wn_-3" vertex="1">
          <mxGeometry y="26" width="160" height="26" as="geometry" />
        </mxCell>
        <mxCell id="27ml4S2k1uJv04ql8wn_-8" value="+ Neurons: double[]" style="text;strokeColor=none;fillColor=none;align=left;verticalAlign=top;spacingLeft=4;spacingRight=4;overflow=hidden;rotatable=0;points=[[0,0.5],[1,0.5]];portConstraint=eastwest;" parent="27ml4S2k1uJv04ql8wn_-3" vertex="1">
          <mxGeometry y="52" width="160" height="26" as="geometry" />
        </mxCell>
        <mxCell id="27ml4S2k1uJv04ql8wn_-10" value="+ item: attribute" style="text;strokeColor=none;fillColor=none;align=left;verticalAlign=top;spacingLeft=4;spacingRight=4;overflow=hidden;rotatable=0;points=[[0,0.5],[1,0.5]];portConstraint=eastwest;" parent="27ml4S2k1uJv04ql8wn_-3" vertex="1">
          <mxGeometry y="78" width="160" height="26" as="geometry" />
        </mxCell>
        <mxCell id="27ml4S2k1uJv04ql8wn_-9" value="+ Biases: double[]" style="text;strokeColor=none;fillColor=none;align=left;verticalAlign=top;spacingLeft=4;spacingRight=4;overflow=hidden;rotatable=0;points=[[0,0.5],[1,0.5]];portConstraint=eastwest;" parent="27ml4S2k1uJv04ql8wn_-3" vertex="1">
          <mxGeometry y="104" width="160" height="26" as="geometry" />
        </mxCell>
        <mxCell id="27ml4S2k1uJv04ql8wn_-5" value="" style="line;strokeWidth=1;fillColor=none;align=left;verticalAlign=middle;spacingTop=-1;spacingLeft=3;spacingRight=3;rotatable=0;labelPosition=right;points=[];portConstraint=eastwest;strokeColor=inherit;" parent="27ml4S2k1uJv04ql8wn_-3" vertex="1">
          <mxGeometry y="130" width="160" height="8" as="geometry" />
        </mxCell>
        <mxCell id="j6F3KSqjQ4Auw0hY_51Z-30" value="Perceptron" style="swimlane;fontStyle=1;align=center;verticalAlign=top;childLayout=stackLayout;horizontal=1;startSize=26;horizontalStack=0;resizeParent=1;resizeParentMax=0;resizeLast=0;collapsible=1;marginBottom=0;" parent="TKF7dKA5Q2aCV54tY_aQ-0" vertex="1">
          <mxGeometry x="680" y="230" width="306" height="190" as="geometry">
            <mxRectangle x="440" y="340" width="100" height="30" as="alternateBounds" />
          </mxGeometry>
        </mxCell>
        <mxCell id="j6F3KSqjQ4Auw0hY_51Z-31" value="+ LearningRate: double" style="text;strokeColor=none;fillColor=none;align=left;verticalAlign=top;spacingLeft=4;spacingRight=4;overflow=hidden;rotatable=0;points=[[0,0.5],[1,0.5]];portConstraint=eastwest;" parent="j6F3KSqjQ4Auw0hY_51Z-30" vertex="1">
          <mxGeometry y="26" width="306" height="26" as="geometry" />
        </mxCell>
        <mxCell id="u3_B_yowm70CAizmdcpt-33" value="+ Layer: Layer[]" style="text;strokeColor=none;fillColor=none;align=left;verticalAlign=top;spacingLeft=4;spacingRight=4;overflow=hidden;rotatable=0;points=[[0,0.5],[1,0.5]];portConstraint=eastwest;" parent="j6F3KSqjQ4Auw0hY_51Z-30" vertex="1">
          <mxGeometry y="52" width="306" height="26" as="geometry" />
        </mxCell>
        <mxCell id="u3_B_yowm70CAizmdcpt-35" value="+ Activation: Func&lt;double, double&gt;" style="text;strokeColor=none;fillColor=none;align=left;verticalAlign=top;spacingLeft=4;spacingRight=4;overflow=hidden;rotatable=0;points=[[0,0.5],[1,0.5]];portConstraint=eastwest;" parent="j6F3KSqjQ4Auw0hY_51Z-30" vertex="1">
          <mxGeometry y="78" width="306" height="26" as="geometry" />
        </mxCell>
        <mxCell id="u3_B_yowm70CAizmdcpt-36" value="+ Derivative: Func&lt;double, double&gt;" style="text;strokeColor=none;fillColor=none;align=left;verticalAlign=top;spacingLeft=4;spacingRight=4;overflow=hidden;rotatable=0;points=[[0,0.5],[1,0.5]];portConstraint=eastwest;" parent="j6F3KSqjQ4Auw0hY_51Z-30" vertex="1">
          <mxGeometry y="104" width="306" height="26" as="geometry" />
        </mxCell>
        <mxCell id="j6F3KSqjQ4Auw0hY_51Z-32" value="" style="line;strokeWidth=1;fillColor=none;align=left;verticalAlign=middle;spacingTop=-1;spacingLeft=3;spacingRight=3;rotatable=0;labelPosition=right;points=[];portConstraint=eastwest;strokeColor=inherit;" parent="j6F3KSqjQ4Auw0hY_51Z-30" vertex="1">
          <mxGeometry y="130" width="306" height="8" as="geometry" />
        </mxCell>
        <mxCell id="j6F3KSqjQ4Auw0hY_51Z-33" value="+ FeedForward(inputs: double[]): double[]" style="text;strokeColor=none;fillColor=none;align=left;verticalAlign=top;spacingLeft=4;spacingRight=4;overflow=hidden;rotatable=0;points=[[0,0.5],[1,0.5]];portConstraint=eastwest;" parent="j6F3KSqjQ4Auw0hY_51Z-30" vertex="1">
          <mxGeometry y="138" width="306" height="26" as="geometry" />
        </mxCell>
        <mxCell id="u3_B_yowm70CAizmdcpt-38" value="+ BackPropagation(targets: double[]): void" style="text;strokeColor=none;fillColor=none;align=left;verticalAlign=top;spacingLeft=4;spacingRight=4;overflow=hidden;rotatable=0;points=[[0,0.5],[1,0.5]];portConstraint=eastwest;" parent="j6F3KSqjQ4Auw0hY_51Z-30" vertex="1">
          <mxGeometry y="164" width="306" height="26" as="geometry" />
        </mxCell>
        <mxCell id="w1dvZM31qv4syowJ6gxu-13" value="" style="endArrow=diamondThin;endFill=1;endSize=24;html=1;rounded=0;exitX=0;exitY=0.5;exitDx=0;exitDy=0;entryX=1;entryY=0.5;entryDx=0;entryDy=0;" parent="TKF7dKA5Q2aCV54tY_aQ-0" source="27ml4S2k1uJv04ql8wn_-8" target="u3_B_yowm70CAizmdcpt-35" edge="1">
          <mxGeometry width="160" relative="1" as="geometry">
            <mxPoint x="803.0900000000001" y="204.20799999999997" as="sourcePoint" />
            <mxPoint x="1420" y="1120" as="targetPoint" />
          </mxGeometry>
        </mxCell>
        <mxCell id="j6F3KSqjQ4Auw0hY_51Z-18" value="Bot" style="swimlane;fontStyle=1;align=center;verticalAlign=top;childLayout=stackLayout;horizontal=1;startSize=26;horizontalStack=0;resizeParent=1;resizeParentMax=0;resizeLast=0;collapsible=1;marginBottom=0;" parent="TKF7dKA5Q2aCV54tY_aQ-0" vertex="1">
          <mxGeometry x="700" y="564" width="250" height="190" as="geometry">
            <mxRectangle x="490" y="250" width="60" height="30" as="alternateBounds" />
          </mxGeometry>
        </mxCell>
        <mxCell id="Smy_J0IMH1DHcD7krqMJ-0" value="- Color: color" style="text;strokeColor=none;fillColor=none;align=left;verticalAlign=top;spacingLeft=4;spacingRight=4;overflow=hidden;rotatable=0;points=[[0,0.5],[1,0.5]];portConstraint=eastwest;" vertex="1" parent="j6F3KSqjQ4Auw0hY_51Z-18">
          <mxGeometry y="26" width="250" height="26" as="geometry" />
        </mxCell>
        <mxCell id="Smy_J0IMH1DHcD7krqMJ-1" value="- Energy: int" style="text;strokeColor=none;fillColor=none;align=left;verticalAlign=top;spacingLeft=4;spacingRight=4;overflow=hidden;rotatable=0;points=[[0,0.5],[1,0.5]];portConstraint=eastwest;" vertex="1" parent="j6F3KSqjQ4Auw0hY_51Z-18">
          <mxGeometry y="52" width="250" height="26" as="geometry" />
        </mxCell>
        <mxCell id="Smy_J0IMH1DHcD7krqMJ-2" value="- Eye: int[]" style="text;strokeColor=none;fillColor=none;align=left;verticalAlign=top;spacingLeft=4;spacingRight=4;overflow=hidden;rotatable=0;points=[[0,0.5],[1,0.5]];portConstraint=eastwest;" vertex="1" parent="j6F3KSqjQ4Auw0hY_51Z-18">
          <mxGeometry y="78" width="250" height="26" as="geometry" />
        </mxCell>
        <mxCell id="j6F3KSqjQ4Auw0hY_51Z-19" value="- Brain: Perceptron" style="text;strokeColor=none;fillColor=none;align=left;verticalAlign=top;spacingLeft=4;spacingRight=4;overflow=hidden;rotatable=0;points=[[0,0.5],[1,0.5]];portConstraint=eastwest;" parent="j6F3KSqjQ4Auw0hY_51Z-18" vertex="1">
          <mxGeometry y="104" width="250" height="26" as="geometry" />
        </mxCell>
        <mxCell id="j6F3KSqjQ4Auw0hY_51Z-20" value="" style="line;strokeWidth=1;fillColor=none;align=left;verticalAlign=middle;spacingTop=-1;spacingLeft=3;spacingRight=3;rotatable=0;labelPosition=right;points=[];portConstraint=eastwest;strokeColor=inherit;" parent="j6F3KSqjQ4Auw0hY_51Z-18" vertex="1">
          <mxGeometry y="130" width="250" height="8" as="geometry" />
        </mxCell>
        <mxCell id="Smy_J0IMH1DHcD7krqMJ-5" value="+ GenerateEnergy(mapType: MapType): void" style="text;strokeColor=none;fillColor=none;align=left;verticalAlign=top;spacingLeft=4;spacingRight=4;overflow=hidden;rotatable=0;points=[[0,0.5],[1,0.5]];portConstraint=eastwest;" vertex="1" parent="j6F3KSqjQ4Auw0hY_51Z-18">
          <mxGeometry y="138" width="250" height="26" as="geometry" />
        </mxCell>
        <mxCell id="Smy_J0IMH1DHcD7krqMJ-4" value="+ Move(x: int, y: int, bots: Bot[,]): void" style="text;strokeColor=none;fillColor=none;align=left;verticalAlign=top;spacingLeft=4;spacingRight=4;overflow=hidden;rotatable=0;points=[[0,0.5],[1,0.5]];portConstraint=eastwest;" vertex="1" parent="j6F3KSqjQ4Auw0hY_51Z-18">
          <mxGeometry y="164" width="250" height="26" as="geometry" />
        </mxCell>
        <mxCell id="w1dvZM31qv4syowJ6gxu-4" value="" style="endArrow=none;html=1;endSize=12;startArrow=diamondThin;startSize=14;startFill=0;edgeStyle=orthogonalEdgeStyle;align=left;verticalAlign=bottom;rounded=0;endFill=0;exitX=0.5;exitY=0;exitDx=0;exitDy=0;" parent="TKF7dKA5Q2aCV54tY_aQ-0" source="j6F3KSqjQ4Auw0hY_51Z-22" edge="1">
          <mxGeometry x="-1" y="3" relative="1" as="geometry">
            <mxPoint x="485" y="1050" as="sourcePoint" />
            <mxPoint x="860" y="754" as="targetPoint" />
            <Array as="points">
              <mxPoint x="1010" y="894" />
              <mxPoint x="860" y="894" />
              <mxPoint x="860" y="754" />
            </Array>
          </mxGeometry>
        </mxCell>
        <mxCell id="Smy_J0IMH1DHcD7krqMJ-6" value="" style="endArrow=diamondThin;endFill=1;endSize=24;html=1;rounded=0;entryX=0.5;entryY=0;entryDx=0;entryDy=0;exitX=0.473;exitY=1.013;exitDx=0;exitDy=0;exitPerimeter=0;" edge="1" parent="TKF7dKA5Q2aCV54tY_aQ-0" source="u3_B_yowm70CAizmdcpt-38" target="j6F3KSqjQ4Auw0hY_51Z-18">
          <mxGeometry width="160" relative="1" as="geometry">
            <mxPoint x="1060" y="730" as="sourcePoint" />
            <mxPoint x="1220" y="730" as="targetPoint" />
          </mxGeometry>
        </mxCell>
        <mxCell id="w1dvZM31qv4syowJ6gxu-1" value="" style="endArrow=none;html=1;endSize=12;startArrow=diamondThin;startSize=14;startFill=0;edgeStyle=orthogonalEdgeStyle;align=left;verticalAlign=bottom;rounded=0;endFill=0;exitX=1;exitY=0.5;exitDx=0;exitDy=0;entryX=0.28;entryY=1.001;entryDx=0;entryDy=0;entryPerimeter=0;" parent="TKF7dKA5Q2aCV54tY_aQ-0" target="Smy_J0IMH1DHcD7krqMJ-4" edge="1" source="F6LW-deDjuDnoKEExlji-11">
          <mxGeometry x="-1" y="3" relative="1" as="geometry">
            <mxPoint x="410.31999999999994" y="940.3619999999999" as="sourcePoint" />
            <mxPoint x="615" y="1080" as="targetPoint" />
            <Array as="points" />
          </mxGeometry>
        </mxCell>
        <mxCell id="j6F3KSqjQ4Auw0hY_51Z-10" value="Guest" style="swimlane;fontStyle=3;align=center;verticalAlign=top;childLayout=stackLayout;horizontal=1;startSize=26;horizontalStack=0;resizeParent=1;resizeParentMax=0;resizeLast=0;collapsible=1;marginBottom=0;" parent="TKF7dKA5Q2aCV54tY_aQ-0" vertex="1">
          <mxGeometry x="410" y="740" width="160" height="60" as="geometry">
            <mxRectangle x="190" y="20" width="70" height="30" as="alternateBounds" />
          </mxGeometry>
        </mxCell>
        <mxCell id="j6F3KSqjQ4Auw0hY_51Z-11" value="- Name: string" style="text;strokeColor=none;fillColor=none;align=left;verticalAlign=top;spacingLeft=4;spacingRight=4;overflow=hidden;rotatable=0;points=[[0,0.5],[1,0.5]];portConstraint=eastwest;" parent="j6F3KSqjQ4Auw0hY_51Z-10" vertex="1">
          <mxGeometry y="26" width="160" height="26" as="geometry" />
        </mxCell>
        <mxCell id="j6F3KSqjQ4Auw0hY_51Z-12" value="" style="line;strokeWidth=1;fillColor=none;align=left;verticalAlign=middle;spacingTop=-1;spacingLeft=3;spacingRight=3;rotatable=0;labelPosition=right;points=[];portConstraint=eastwest;strokeColor=inherit;" parent="j6F3KSqjQ4Auw0hY_51Z-10" vertex="1">
          <mxGeometry y="52" width="160" height="8" as="geometry" />
        </mxCell>
        <mxCell id="j6F3KSqjQ4Auw0hY_51Z-35" value="" style="endArrow=block;endFill=0;endSize=12;html=1;rounded=0;exitX=0.5;exitY=0;exitDx=0;exitDy=0;entryX=0.5;entryY=1;entryDx=0;entryDy=0;" parent="TKF7dKA5Q2aCV54tY_aQ-0" source="j6F3KSqjQ4Auw0hY_51Z-4" target="j6F3KSqjQ4Auw0hY_51Z-10" edge="1">
          <mxGeometry width="160" relative="1" as="geometry">
            <mxPoint x="400" y="1080" as="sourcePoint" />
            <mxPoint x="320" y="830" as="targetPoint" />
          </mxGeometry>
        </mxCell>
      </root>
    </mxGraphModel>
  </diagram>
</mxfile>
